<svg width="1200" height="1200" viewBox="0 0 1200 1200" fill="none" xmlns="http://www.w3.org/2000/svg">
  <path d="M421.8 449.36L425.1 666.04L360.94 403.28C358.67 394.43 363.3 385.61 371.28 383.56L489.68 353.23C492.89 352.41 496.32 352.79 499.41 354.33L564.36 385.49L447.3 416.5C432.29 420.35 421.8 433.85 421.79 449.35L421.8 449.36Z" fill="#36453F"/>
  <path d="M820 529.52C820 529.52 797.34 529.34 780.76 522.99L783.59 440.95C784.85 404.56 807.05 372.03 840.67 358.07C842.77 357.2 844.69 356.5 846.35 356.03C863.43 351.16 945.74 334.72 963.49 327.42C981.24 320.12 1023.59 309.17 1027.37 304.98C1027.37 304.98 1008.04 365.13 934.97 395.5C934.97 395.5 984.17 403.92 1004.94 398.34C1004.94 398.34 992.73 436.01 900.69 449.75C900.69 449.75 924.12 459.75 943.09 460.65C943.09 460.65 902.53 496.58 848.29 485.87C848.29 485.87 858.75 500.12 870.92 503.5C870.92 503.5 851.28 520.76 818.75 515.22C818.75 515.22 817.85 518.46 820.01 529.55L820 529.52Z" fill="#ECCB6B"/>
  <path d="M527.65 668.13L545.64 663.12L551.58 661.47L747.34 606.97C760.01 603.44 768.94 592.13 769.43 578.98L777.1 374.08C777.86 353.64 758.51 338.35 738.79 343.84L572.09 390.26L451.59 423.81C438.31 427.51 429.21 439.73 429.49 453.53L433.57 655.16L434.99 693.97L471.89 683.66L526.22 668.53L526.34 668.5L527.66 668.13H527.65Z" fill="#ECCB6B"/>
  <path d="M358.8 600C358.8 600 380.97 595.32 395.96 585.79L376.86 505.95C368.39 470.54 340.16 443.08 304.43 436.08C302.2 435.64 300.18 435.34 298.46 435.21C280.76 433.84 196.82 434.1 177.97 430.47C159.12 426.85 115.44 424.54 110.9 421.19C110.9 421.19 141.81 476.29 219.46 491.51C219.46 491.51 172.92 509.55 151.45 508.21C151.45 508.21 170.91 542.69 263.85 537.85C263.85 537.85 242.88 552.31 224.47 556.97C224.47 556.97 271.37 584.11 322.39 562.83C322.39 562.83 314.97 578.88 303.72 584.61C303.72 584.61 326.4 597.61 357.18 585.71C357.18 585.71 358.71 588.71 358.79 600H358.8Z" fill="#36453F"/>
  <path d="M536.07 671.63C536.25 671.26 538.01 667.31 536.88 661.06L538.08 660.73L539.21 660.42C540.7 663.09 540.59 667 536.07 671.63Z" fill="#ECCB6B"/>
  <path d="M527.11 691.04C529.98 689.26 551.22 677.39 552.54 674.59C555.19 668.94 547.06 658.9 547.06 658.9C548.96 640.85 547.09 626.33 547.88 616.65C549.38 598.28 552.32 578.12 549.84 558.24C545.7 525 511.24 524.49 515.24 537.26C519.24 550.03 515.76 567.21 514.95 576.05C514.13 584.89 509.2 579.94 510.64 594.58C512.07 609.22 497.83 640.62 491.9 649.97C491.06 655.92 492.61 669.37 497.47 683.84C499.56 687.18 520.68 695.02 527.12 691.03L527.11 691.04Z" fill="#36453F"/>
  <path d="M703.06 619.27C702.93 619.39 700.91 621.3 697.25 626.12C693.48 631.09 690.1 648.65 689.07 654.14C688.04 659.63 682.91 703.78 681.91 724.42C680.62 751.3 640.85 805.8 640.85 805.8L652.71 906.17L653.14 909.8L662.81 991.64C663.58 998.12 669.01 1055.02 670.47 1063.36C664.59 1064.41 658.69 1065.34 652.77 1066.17C651.65 1066.33 650.52 1066.49 649.4 1066.63C647.09 1066.94 644.77 1067.23 642.44 1067.51C625.07 1069.58 607.52 1070.74 589.82 1070.97C566.25 1070.69 542.93 1068.77 519.94 1065.25C515.6 1064.58 511.27 1063.86 506.96 1063.07C507.24 1060.32 512.68 979.74 514.16 963.77C514.98 954.84 515.79 945.93 516.59 937.08V937.06C516.99 932.64 517.38 928.26 517.77 923.89C524.96 842.91 530.49 771.82 530.49 771.82C523.06 750.7 512.48 738.06 506.86 722.84C501.78 709.1 492.96 666.19 492.96 666.19L537.05 665.27L537.32 665.21L539.81 664.71H539.84L552.35 661.22L571.84 655.79L577.83 654.12L703.08 619.25L703.06 619.27Z" fill="#36453F"/>
  <path d="M599.03 742.38C599.03 742.38 587.02 739.42 584.78 721.63C582.57 704.06 566.84 684.28 556.71 676.12L568.32 682.16C580.02 690.26 592.1 703.54 597.02 725.07C598.64 720.08 604.5 712.34 608.07 709.31C608.07 709.31 604.23 737.6 599.03 742.38Z" fill="#ECCB6B"/>
  <path d="M548.4 671.86C548.58 671.49 550.35 667.5 549.22 661.19L550.43 660.86L551.57 660.54C553.07 663.24 552.96 667.18 548.4 671.86Z" fill="#ECCB6B"/>
  <path d="M591.93 771.98C591.93 771.98 640.71 769.76 663.97 721.57C663.97 721.57 663.97 751.8 642.66 771.5C622.1 790.51 620.85 808.08 623.96 830.34C623.96 830.34 613.54 774.78 591.93 771.98Z" fill="#ECCB6B"/>
  <path d="M1070.58 535.51C1063.05 536.51 1057.64 543.3 1058.44 550.85C1060.14 567.08 1061 583.47 1061 600C1061 662.57 1048.75 723.25 1024.59 780.38C1008.91 817.46 988.68 851.99 964.19 883.58C952.22 899 939.24 913.72 925.28 927.69C882.71 970.25 833.15 1003.67 777.97 1027.01C720.84 1051.17 660.16 1063.42 597.59 1063.42C535.02 1063.42 474.34 1051.17 417.21 1027.01C368.23 1006.29 323.66 977.63 284.5 941.68C279.55 937.13 274.68 932.47 269.9 927.69C227.34 885.12 193.92 835.56 170.58 780.38C155.85 745.54 145.54 709.37 139.75 672.26C138.58 664.74 131.58 659.56 124.03 660.56C116.23 661.59 110.76 668.82 111.97 676.6C118.12 715.98 129.05 754.36 144.7 791.34C169.46 849.87 204.89 902.44 250.03 947.58C255.26 952.81 260.59 957.91 266.02 962.89C307.43 1000.79 354.51 1031.02 406.26 1052.91C466.86 1078.55 531.24 1091.54 597.59 1091.54C663.94 1091.54 728.31 1078.55 788.92 1052.91C847.45 1028.15 900.02 992.72 945.16 947.58C960.1 932.64 973.98 916.87 986.76 900.36C1012.59 866.99 1033.93 830.5 1050.49 791.35C1076.13 730.75 1089.12 666.37 1089.12 600.02C1089.12 582.55 1088.22 565.22 1086.42 548.06C1085.59 540.17 1078.46 534.49 1070.59 535.53L1070.58 535.51ZM269.88 272.31C312.45 229.75 362.01 196.33 417.19 172.99C474.32 148.83 535 136.58 597.57 136.58C660.14 136.58 720.82 148.83 777.95 172.99C815.78 189 850.98 209.74 883.09 234.92C888.96 239.52 897.42 238.69 902.32 233.07C907.62 226.99 906.72 217.72 900.38 212.75C866.34 186.06 829.02 164.07 788.91 147.11C728.31 121.47 663.93 108.48 597.58 108.48C531.23 108.48 466.86 121.47 406.25 147.11C347.71 171.87 295.15 207.3 250.01 252.44C234.14 268.31 219.48 285.08 206.06 302.71C201.31 308.95 202.54 317.87 208.84 322.54C215.01 327.13 223.73 325.91 228.39 319.79C241.06 303.14 254.9 287.29 269.88 272.31Z" fill="#36453F"/>
</svg>
